<?xml version="1.0" encoding="UTF-8"?>
<svg width="18" height="18" viewBox="0 0 18 18" xmlns="http://www.w3.org/2000/svg">
    <!-- 更大的卡通灯泡 -->
    <path fill="currentColor" d="M9 1c-3.5 0-6.5 3-6.5 6.5 0 2.1 1 4 2.6 5.2.6.4.9.9.9 1.8v1h6v-1c0-.9.3-1.4.9-1.8 1.6-1.2 2.6-3.1 2.6-5.2C15.5 4 12.5 1 9 1z"/>
    <!-- 简化的底部 -->
    <path fill="currentColor" d="M6.5 16h5c.3 0 .5.2.5.5s-.2.5-.5.5h-5c-.3 0-.5-.2-.5-.5s.2-.5.5-.5z"/>
    <!-- 可爱的光点装饰 -->
    <circle fill="currentColor" cx="9" cy="4" r="1"/>
    <circle fill="currentColor" cx="12" cy="6" r="0.7"/>
    <circle fill="currentColor" cx="6" cy="6" r="0.7"/>
</svg> 